<mxfile host="app.diagrams.net" modified="2024-04-21T19:15:26.043Z" agent="Mozilla/5.0 (Windows NT 10.0; Win64; x64) AppleWebKit/537.36 (KHTML, like Gecko) Chrome/124.0.0.0 Safari/537.36   " etag="epJhFdlJ_1gnKA8Bwh5L" version="24.2.7" type="device">
  <diagram id="R2lEEEUBdFMjLlhIrx00" name="Page-1">
    <mxGraphModel dx="1434" dy="796" grid="1" gridSize="10" guides="1" tooltips="1" connect="1" arrows="1" fold="1" page="1" pageScale="1" pageWidth="850" pageHeight="1100" math="0" shadow="0" extFonts="Permanent Marker^https://fonts.googleapis.com/css?family=Permanent+Marker">
      <root>
        <mxCell id="0" />
        <mxCell id="1" parent="0" />
        <mxCell id="x9qlODBB4SoJiExAGuNC-1" value="movie" style="shape=table;startSize=30;container=1;collapsible=0;childLayout=tableLayout;spacing=0;strokeWidth=1;fontSize=14;top=1;fontStyle=1" vertex="1" parent="1">
          <mxGeometry x="60" y="90" width="330" height="520" as="geometry" />
        </mxCell>
        <mxCell id="x9qlODBB4SoJiExAGuNC-5" value="" style="shape=tableRow;horizontal=0;startSize=0;swimlaneHead=0;swimlaneBody=0;strokeColor=inherit;top=0;left=0;bottom=0;right=0;collapsible=0;dropTarget=0;fillColor=none;points=[[0,0.5],[1,0.5]];portConstraint=eastwest;" vertex="1" parent="x9qlODBB4SoJiExAGuNC-1">
          <mxGeometry y="30" width="330" height="38" as="geometry" />
        </mxCell>
        <mxCell id="x9qlODBB4SoJiExAGuNC-6" value="" style="shape=partialRectangle;html=1;whiteSpace=wrap;connectable=0;strokeColor=inherit;overflow=hidden;fillColor=none;top=0;left=0;bottom=0;right=0;pointerEvents=1;" vertex="1" parent="x9qlODBB4SoJiExAGuNC-5">
          <mxGeometry height="38" as="geometry">
            <mxRectangle height="38" as="alternateBounds" />
          </mxGeometry>
        </mxCell>
        <mxCell id="x9qlODBB4SoJiExAGuNC-7" value="&lt;u&gt;id&lt;/u&gt;" style="shape=partialRectangle;html=1;whiteSpace=wrap;connectable=0;strokeColor=inherit;overflow=hidden;fillColor=none;top=0;left=0;bottom=0;right=0;pointerEvents=1;textShadow=0;" vertex="1" parent="x9qlODBB4SoJiExAGuNC-5">
          <mxGeometry width="330" height="38" as="geometry">
            <mxRectangle width="330" height="38" as="alternateBounds" />
          </mxGeometry>
        </mxCell>
        <mxCell id="x9qlODBB4SoJiExAGuNC-8" value="" style="shape=tableRow;horizontal=0;startSize=0;swimlaneHead=0;swimlaneBody=0;strokeColor=inherit;top=0;left=0;bottom=0;right=0;collapsible=0;dropTarget=0;fillColor=none;points=[[0,0.5],[1,0.5]];portConstraint=eastwest;" vertex="1" parent="x9qlODBB4SoJiExAGuNC-1">
          <mxGeometry y="68" width="330" height="37" as="geometry" />
        </mxCell>
        <mxCell id="x9qlODBB4SoJiExAGuNC-9" value="" style="shape=partialRectangle;html=1;whiteSpace=wrap;connectable=0;strokeColor=inherit;overflow=hidden;fillColor=none;top=0;left=0;bottom=0;right=0;pointerEvents=1;" vertex="1" parent="x9qlODBB4SoJiExAGuNC-8">
          <mxGeometry height="37" as="geometry">
            <mxRectangle height="37" as="alternateBounds" />
          </mxGeometry>
        </mxCell>
        <mxCell id="x9qlODBB4SoJiExAGuNC-10" value="title" style="shape=partialRectangle;html=1;whiteSpace=wrap;connectable=0;strokeColor=inherit;overflow=hidden;fillColor=none;top=0;left=0;bottom=0;right=0;pointerEvents=1;" vertex="1" parent="x9qlODBB4SoJiExAGuNC-8">
          <mxGeometry width="330" height="37" as="geometry">
            <mxRectangle width="330" height="37" as="alternateBounds" />
          </mxGeometry>
        </mxCell>
        <mxCell id="x9qlODBB4SoJiExAGuNC-11" value="" style="shape=tableRow;horizontal=0;startSize=0;swimlaneHead=0;swimlaneBody=0;strokeColor=inherit;top=0;left=0;bottom=0;right=0;collapsible=0;dropTarget=0;fillColor=none;points=[[0,0.5],[1,0.5]];portConstraint=eastwest;" vertex="1" parent="x9qlODBB4SoJiExAGuNC-1">
          <mxGeometry y="105" width="330" height="38" as="geometry" />
        </mxCell>
        <mxCell id="x9qlODBB4SoJiExAGuNC-12" value="" style="shape=partialRectangle;html=1;whiteSpace=wrap;connectable=0;strokeColor=inherit;overflow=hidden;fillColor=none;top=0;left=0;bottom=0;right=0;pointerEvents=1;" vertex="1" parent="x9qlODBB4SoJiExAGuNC-11">
          <mxGeometry height="38" as="geometry">
            <mxRectangle height="38" as="alternateBounds" />
          </mxGeometry>
        </mxCell>
        <mxCell id="x9qlODBB4SoJiExAGuNC-13" value="original title" style="shape=partialRectangle;html=1;whiteSpace=wrap;connectable=0;strokeColor=inherit;overflow=hidden;fillColor=none;top=0;left=0;bottom=0;right=0;pointerEvents=1;" vertex="1" parent="x9qlODBB4SoJiExAGuNC-11">
          <mxGeometry width="330" height="38" as="geometry">
            <mxRectangle width="330" height="38" as="alternateBounds" />
          </mxGeometry>
        </mxCell>
        <mxCell id="x9qlODBB4SoJiExAGuNC-14" value="" style="shape=tableRow;horizontal=0;startSize=0;swimlaneHead=0;swimlaneBody=0;strokeColor=inherit;top=0;left=0;bottom=0;right=0;collapsible=0;dropTarget=0;fillColor=none;points=[[0,0.5],[1,0.5]];portConstraint=eastwest;" vertex="1" parent="x9qlODBB4SoJiExAGuNC-1">
          <mxGeometry y="143" width="330" height="38" as="geometry" />
        </mxCell>
        <mxCell id="x9qlODBB4SoJiExAGuNC-15" value="" style="shape=partialRectangle;html=1;whiteSpace=wrap;connectable=0;strokeColor=inherit;overflow=hidden;fillColor=none;top=0;left=0;bottom=0;right=0;pointerEvents=1;" vertex="1" parent="x9qlODBB4SoJiExAGuNC-14">
          <mxGeometry height="38" as="geometry">
            <mxRectangle height="38" as="alternateBounds" />
          </mxGeometry>
        </mxCell>
        <mxCell id="x9qlODBB4SoJiExAGuNC-16" value="tagline" style="shape=partialRectangle;html=1;whiteSpace=wrap;connectable=0;strokeColor=inherit;overflow=hidden;fillColor=none;top=0;left=0;bottom=0;right=0;pointerEvents=1;" vertex="1" parent="x9qlODBB4SoJiExAGuNC-14">
          <mxGeometry width="330" height="38" as="geometry">
            <mxRectangle width="330" height="38" as="alternateBounds" />
          </mxGeometry>
        </mxCell>
        <mxCell id="x9qlODBB4SoJiExAGuNC-17" value="" style="shape=tableRow;horizontal=0;startSize=0;swimlaneHead=0;swimlaneBody=0;strokeColor=inherit;top=0;left=0;bottom=0;right=0;collapsible=0;dropTarget=0;fillColor=none;points=[[0,0.5],[1,0.5]];portConstraint=eastwest;" vertex="1" parent="x9qlODBB4SoJiExAGuNC-1">
          <mxGeometry y="181" width="330" height="37" as="geometry" />
        </mxCell>
        <mxCell id="x9qlODBB4SoJiExAGuNC-18" value="" style="shape=partialRectangle;html=1;whiteSpace=wrap;connectable=0;strokeColor=inherit;overflow=hidden;fillColor=none;top=0;left=0;bottom=0;right=0;pointerEvents=1;" vertex="1" parent="x9qlODBB4SoJiExAGuNC-17">
          <mxGeometry height="37" as="geometry">
            <mxRectangle height="37" as="alternateBounds" />
          </mxGeometry>
        </mxCell>
        <mxCell id="x9qlODBB4SoJiExAGuNC-19" value="overview" style="shape=partialRectangle;html=1;whiteSpace=wrap;connectable=0;strokeColor=inherit;overflow=hidden;fillColor=none;top=0;left=0;bottom=0;right=0;pointerEvents=1;" vertex="1" parent="x9qlODBB4SoJiExAGuNC-17">
          <mxGeometry width="330" height="37" as="geometry">
            <mxRectangle width="330" height="37" as="alternateBounds" />
          </mxGeometry>
        </mxCell>
        <mxCell id="x9qlODBB4SoJiExAGuNC-20" value="" style="shape=tableRow;horizontal=0;startSize=0;swimlaneHead=0;swimlaneBody=0;strokeColor=inherit;top=0;left=0;bottom=0;right=0;collapsible=0;dropTarget=0;fillColor=none;points=[[0,0.5],[1,0.5]];portConstraint=eastwest;" vertex="1" parent="x9qlODBB4SoJiExAGuNC-1">
          <mxGeometry y="218" width="330" height="38" as="geometry" />
        </mxCell>
        <mxCell id="x9qlODBB4SoJiExAGuNC-21" value="" style="shape=partialRectangle;html=1;whiteSpace=wrap;connectable=0;strokeColor=inherit;overflow=hidden;fillColor=none;top=0;left=0;bottom=0;right=0;pointerEvents=1;" vertex="1" parent="x9qlODBB4SoJiExAGuNC-20">
          <mxGeometry height="38" as="geometry">
            <mxRectangle height="38" as="alternateBounds" />
          </mxGeometry>
        </mxCell>
        <mxCell id="x9qlODBB4SoJiExAGuNC-22" value="homepage" style="shape=partialRectangle;html=1;whiteSpace=wrap;connectable=0;strokeColor=inherit;overflow=hidden;fillColor=none;top=0;left=0;bottom=0;right=0;pointerEvents=1;" vertex="1" parent="x9qlODBB4SoJiExAGuNC-20">
          <mxGeometry width="330" height="38" as="geometry">
            <mxRectangle width="330" height="38" as="alternateBounds" />
          </mxGeometry>
        </mxCell>
        <mxCell id="x9qlODBB4SoJiExAGuNC-23" value="" style="shape=tableRow;horizontal=0;startSize=0;swimlaneHead=0;swimlaneBody=0;strokeColor=inherit;top=0;left=0;bottom=0;right=0;collapsible=0;dropTarget=0;fillColor=none;points=[[0,0.5],[1,0.5]];portConstraint=eastwest;" vertex="1" parent="x9qlODBB4SoJiExAGuNC-1">
          <mxGeometry y="256" width="330" height="38" as="geometry" />
        </mxCell>
        <mxCell id="x9qlODBB4SoJiExAGuNC-24" value="" style="shape=partialRectangle;html=1;whiteSpace=wrap;connectable=0;strokeColor=inherit;overflow=hidden;fillColor=none;top=0;left=0;bottom=0;right=0;pointerEvents=1;" vertex="1" parent="x9qlODBB4SoJiExAGuNC-23">
          <mxGeometry height="38" as="geometry">
            <mxRectangle height="38" as="alternateBounds" />
          </mxGeometry>
        </mxCell>
        <mxCell id="x9qlODBB4SoJiExAGuNC-25" value="budget" style="shape=partialRectangle;html=1;whiteSpace=wrap;connectable=0;strokeColor=inherit;overflow=hidden;fillColor=none;top=0;left=0;bottom=0;right=0;pointerEvents=1;" vertex="1" parent="x9qlODBB4SoJiExAGuNC-23">
          <mxGeometry width="330" height="38" as="geometry">
            <mxRectangle width="330" height="38" as="alternateBounds" />
          </mxGeometry>
        </mxCell>
        <mxCell id="x9qlODBB4SoJiExAGuNC-26" value="" style="shape=tableRow;horizontal=0;startSize=0;swimlaneHead=0;swimlaneBody=0;strokeColor=inherit;top=0;left=0;bottom=0;right=0;collapsible=0;dropTarget=0;fillColor=none;points=[[0,0.5],[1,0.5]];portConstraint=eastwest;" vertex="1" parent="x9qlODBB4SoJiExAGuNC-1">
          <mxGeometry y="294" width="330" height="38" as="geometry" />
        </mxCell>
        <mxCell id="x9qlODBB4SoJiExAGuNC-27" value="" style="shape=partialRectangle;html=1;whiteSpace=wrap;connectable=0;strokeColor=inherit;overflow=hidden;fillColor=none;top=0;left=0;bottom=0;right=0;pointerEvents=1;" vertex="1" parent="x9qlODBB4SoJiExAGuNC-26">
          <mxGeometry height="38" as="geometry">
            <mxRectangle height="38" as="alternateBounds" />
          </mxGeometry>
        </mxCell>
        <mxCell id="x9qlODBB4SoJiExAGuNC-28" value="revenue" style="shape=partialRectangle;html=1;whiteSpace=wrap;connectable=0;strokeColor=inherit;overflow=hidden;fillColor=none;top=0;left=0;bottom=0;right=0;pointerEvents=1;" vertex="1" parent="x9qlODBB4SoJiExAGuNC-26">
          <mxGeometry width="330" height="38" as="geometry">
            <mxRectangle width="330" height="38" as="alternateBounds" />
          </mxGeometry>
        </mxCell>
        <mxCell id="x9qlODBB4SoJiExAGuNC-29" value="" style="shape=tableRow;horizontal=0;startSize=0;swimlaneHead=0;swimlaneBody=0;strokeColor=inherit;top=0;left=0;bottom=0;right=0;collapsible=0;dropTarget=0;fillColor=none;points=[[0,0.5],[1,0.5]];portConstraint=eastwest;" vertex="1" parent="x9qlODBB4SoJiExAGuNC-1">
          <mxGeometry y="332" width="330" height="37" as="geometry" />
        </mxCell>
        <mxCell id="x9qlODBB4SoJiExAGuNC-30" value="" style="shape=partialRectangle;html=1;whiteSpace=wrap;connectable=0;strokeColor=inherit;overflow=hidden;fillColor=none;top=0;left=0;bottom=0;right=0;pointerEvents=1;" vertex="1" parent="x9qlODBB4SoJiExAGuNC-29">
          <mxGeometry height="37" as="geometry">
            <mxRectangle height="37" as="alternateBounds" />
          </mxGeometry>
        </mxCell>
        <mxCell id="x9qlODBB4SoJiExAGuNC-31" value="release date" style="shape=partialRectangle;html=1;whiteSpace=wrap;connectable=0;strokeColor=inherit;overflow=hidden;fillColor=none;top=0;left=0;bottom=0;right=0;pointerEvents=1;" vertex="1" parent="x9qlODBB4SoJiExAGuNC-29">
          <mxGeometry width="330" height="37" as="geometry">
            <mxRectangle width="330" height="37" as="alternateBounds" />
          </mxGeometry>
        </mxCell>
        <mxCell id="x9qlODBB4SoJiExAGuNC-32" value="" style="shape=tableRow;horizontal=0;startSize=0;swimlaneHead=0;swimlaneBody=0;strokeColor=inherit;top=0;left=0;bottom=0;right=0;collapsible=0;dropTarget=0;fillColor=none;points=[[0,0.5],[1,0.5]];portConstraint=eastwest;" vertex="1" parent="x9qlODBB4SoJiExAGuNC-1">
          <mxGeometry y="369" width="330" height="38" as="geometry" />
        </mxCell>
        <mxCell id="x9qlODBB4SoJiExAGuNC-33" value="" style="shape=partialRectangle;html=1;whiteSpace=wrap;connectable=0;strokeColor=inherit;overflow=hidden;fillColor=none;top=0;left=0;bottom=0;right=0;pointerEvents=1;" vertex="1" parent="x9qlODBB4SoJiExAGuNC-32">
          <mxGeometry height="38" as="geometry">
            <mxRectangle height="38" as="alternateBounds" />
          </mxGeometry>
        </mxCell>
        <mxCell id="x9qlODBB4SoJiExAGuNC-34" value="popularity" style="shape=partialRectangle;html=1;whiteSpace=wrap;connectable=0;strokeColor=inherit;overflow=hidden;fillColor=none;top=0;left=0;bottom=0;right=0;pointerEvents=1;" vertex="1" parent="x9qlODBB4SoJiExAGuNC-32">
          <mxGeometry width="330" height="38" as="geometry">
            <mxRectangle width="330" height="38" as="alternateBounds" />
          </mxGeometry>
        </mxCell>
        <mxCell id="x9qlODBB4SoJiExAGuNC-35" value="" style="shape=tableRow;horizontal=0;startSize=0;swimlaneHead=0;swimlaneBody=0;strokeColor=inherit;top=0;left=0;bottom=0;right=0;collapsible=0;dropTarget=0;fillColor=none;points=[[0,0.5],[1,0.5]];portConstraint=eastwest;" vertex="1" parent="x9qlODBB4SoJiExAGuNC-1">
          <mxGeometry y="407" width="330" height="38" as="geometry" />
        </mxCell>
        <mxCell id="x9qlODBB4SoJiExAGuNC-36" value="" style="shape=partialRectangle;html=1;whiteSpace=wrap;connectable=0;strokeColor=inherit;overflow=hidden;fillColor=none;top=0;left=0;bottom=0;right=0;pointerEvents=1;" vertex="1" parent="x9qlODBB4SoJiExAGuNC-35">
          <mxGeometry height="38" as="geometry">
            <mxRectangle height="38" as="alternateBounds" />
          </mxGeometry>
        </mxCell>
        <mxCell id="x9qlODBB4SoJiExAGuNC-37" value="adult" style="shape=partialRectangle;html=1;whiteSpace=wrap;connectable=0;strokeColor=inherit;overflow=hidden;fillColor=none;top=0;left=0;bottom=0;right=0;pointerEvents=1;" vertex="1" parent="x9qlODBB4SoJiExAGuNC-35">
          <mxGeometry width="330" height="38" as="geometry">
            <mxRectangle width="330" height="38" as="alternateBounds" />
          </mxGeometry>
        </mxCell>
        <mxCell id="x9qlODBB4SoJiExAGuNC-38" value="" style="shape=tableRow;horizontal=0;startSize=0;swimlaneHead=0;swimlaneBody=0;strokeColor=inherit;top=0;left=0;bottom=0;right=0;collapsible=0;dropTarget=0;fillColor=none;points=[[0,0.5],[1,0.5]];portConstraint=eastwest;" vertex="1" parent="x9qlODBB4SoJiExAGuNC-1">
          <mxGeometry y="445" width="330" height="37" as="geometry" />
        </mxCell>
        <mxCell id="x9qlODBB4SoJiExAGuNC-39" value="" style="shape=partialRectangle;html=1;whiteSpace=wrap;connectable=0;strokeColor=inherit;overflow=hidden;fillColor=none;top=0;left=0;bottom=0;right=0;pointerEvents=1;" vertex="1" parent="x9qlODBB4SoJiExAGuNC-38">
          <mxGeometry height="37" as="geometry">
            <mxRectangle height="37" as="alternateBounds" />
          </mxGeometry>
        </mxCell>
        <mxCell id="x9qlODBB4SoJiExAGuNC-40" value="runtime" style="shape=partialRectangle;html=1;whiteSpace=wrap;connectable=0;strokeColor=inherit;overflow=hidden;fillColor=none;top=0;left=0;bottom=0;right=0;pointerEvents=1;" vertex="1" parent="x9qlODBB4SoJiExAGuNC-38">
          <mxGeometry width="330" height="37" as="geometry">
            <mxRectangle width="330" height="37" as="alternateBounds" />
          </mxGeometry>
        </mxCell>
        <mxCell id="x9qlODBB4SoJiExAGuNC-41" value="" style="shape=tableRow;horizontal=0;startSize=0;swimlaneHead=0;swimlaneBody=0;strokeColor=inherit;top=0;left=0;bottom=0;right=0;collapsible=0;dropTarget=0;fillColor=none;points=[[0,0.5],[1,0.5]];portConstraint=eastwest;" vertex="1" parent="x9qlODBB4SoJiExAGuNC-1">
          <mxGeometry y="482" width="330" height="38" as="geometry" />
        </mxCell>
        <mxCell id="x9qlODBB4SoJiExAGuNC-42" value="" style="shape=partialRectangle;html=1;whiteSpace=wrap;connectable=0;strokeColor=inherit;overflow=hidden;fillColor=none;top=0;left=0;bottom=0;right=0;pointerEvents=1;" vertex="1" parent="x9qlODBB4SoJiExAGuNC-41">
          <mxGeometry height="38" as="geometry">
            <mxRectangle height="38" as="alternateBounds" />
          </mxGeometry>
        </mxCell>
        <mxCell id="x9qlODBB4SoJiExAGuNC-43" value="original_language" style="shape=partialRectangle;html=1;whiteSpace=wrap;connectable=0;strokeColor=inherit;overflow=hidden;fillColor=none;top=0;left=0;bottom=0;right=0;pointerEvents=1;" vertex="1" parent="x9qlODBB4SoJiExAGuNC-41">
          <mxGeometry width="330" height="38" as="geometry">
            <mxRectangle width="330" height="38" as="alternateBounds" />
          </mxGeometry>
        </mxCell>
        <mxCell id="x9qlODBB4SoJiExAGuNC-44" value="movie_cast" style="shape=table;startSize=30;container=1;collapsible=0;childLayout=tableLayout;fontStyle=1;fontSize=14;" vertex="1" parent="1">
          <mxGeometry x="535" y="90" width="290" height="245" as="geometry" />
        </mxCell>
        <mxCell id="x9qlODBB4SoJiExAGuNC-48" value="" style="shape=tableRow;horizontal=0;startSize=0;swimlaneHead=0;swimlaneBody=0;strokeColor=inherit;top=0;left=0;bottom=0;right=0;collapsible=0;dropTarget=0;fillColor=none;points=[[0,0.5],[1,0.5]];portConstraint=eastwest;" vertex="1" parent="x9qlODBB4SoJiExAGuNC-44">
          <mxGeometry y="30" width="290" height="36" as="geometry" />
        </mxCell>
        <mxCell id="x9qlODBB4SoJiExAGuNC-49" value="" style="shape=partialRectangle;html=1;whiteSpace=wrap;connectable=0;strokeColor=inherit;overflow=hidden;fillColor=none;top=0;left=0;bottom=0;right=0;pointerEvents=1;" vertex="1" parent="x9qlODBB4SoJiExAGuNC-48">
          <mxGeometry height="36" as="geometry">
            <mxRectangle height="36" as="alternateBounds" />
          </mxGeometry>
        </mxCell>
        <mxCell id="x9qlODBB4SoJiExAGuNC-50" value="&lt;u&gt;cid&lt;/u&gt;" style="shape=partialRectangle;html=1;whiteSpace=wrap;connectable=0;strokeColor=inherit;overflow=hidden;fillColor=none;top=0;left=0;bottom=0;right=0;pointerEvents=1;" vertex="1" parent="x9qlODBB4SoJiExAGuNC-48">
          <mxGeometry width="290" height="36" as="geometry">
            <mxRectangle width="290" height="36" as="alternateBounds" />
          </mxGeometry>
        </mxCell>
        <mxCell id="x9qlODBB4SoJiExAGuNC-51" value="" style="shape=tableRow;horizontal=0;startSize=0;swimlaneHead=0;swimlaneBody=0;strokeColor=inherit;top=0;left=0;bottom=0;right=0;collapsible=0;dropTarget=0;fillColor=none;points=[[0,0.5],[1,0.5]];portConstraint=eastwest;" vertex="1" parent="x9qlODBB4SoJiExAGuNC-44">
          <mxGeometry y="66" width="290" height="36" as="geometry" />
        </mxCell>
        <mxCell id="x9qlODBB4SoJiExAGuNC-52" value="" style="shape=partialRectangle;html=1;whiteSpace=wrap;connectable=0;strokeColor=inherit;overflow=hidden;fillColor=none;top=0;left=0;bottom=0;right=0;pointerEvents=1;" vertex="1" parent="x9qlODBB4SoJiExAGuNC-51">
          <mxGeometry height="36" as="geometry">
            <mxRectangle height="36" as="alternateBounds" />
          </mxGeometry>
        </mxCell>
        <mxCell id="x9qlODBB4SoJiExAGuNC-53" value="movie_id" style="shape=partialRectangle;html=1;whiteSpace=wrap;connectable=0;strokeColor=inherit;overflow=hidden;fillColor=none;top=0;left=0;bottom=0;right=0;pointerEvents=1;" vertex="1" parent="x9qlODBB4SoJiExAGuNC-51">
          <mxGeometry width="290" height="36" as="geometry">
            <mxRectangle width="290" height="36" as="alternateBounds" />
          </mxGeometry>
        </mxCell>
        <mxCell id="x9qlODBB4SoJiExAGuNC-54" value="" style="shape=tableRow;horizontal=0;startSize=0;swimlaneHead=0;swimlaneBody=0;strokeColor=inherit;top=0;left=0;bottom=0;right=0;collapsible=0;dropTarget=0;fillColor=none;points=[[0,0.5],[1,0.5]];portConstraint=eastwest;" vertex="1" parent="x9qlODBB4SoJiExAGuNC-44">
          <mxGeometry y="102" width="290" height="35" as="geometry" />
        </mxCell>
        <mxCell id="x9qlODBB4SoJiExAGuNC-55" value="" style="shape=partialRectangle;html=1;whiteSpace=wrap;connectable=0;strokeColor=inherit;overflow=hidden;fillColor=none;top=0;left=0;bottom=0;right=0;pointerEvents=1;" vertex="1" parent="x9qlODBB4SoJiExAGuNC-54">
          <mxGeometry height="35" as="geometry">
            <mxRectangle height="35" as="alternateBounds" />
          </mxGeometry>
        </mxCell>
        <mxCell id="x9qlODBB4SoJiExAGuNC-56" value="person_id" style="shape=partialRectangle;html=1;whiteSpace=wrap;connectable=0;strokeColor=inherit;overflow=hidden;fillColor=none;top=0;left=0;bottom=0;right=0;pointerEvents=1;" vertex="1" parent="x9qlODBB4SoJiExAGuNC-54">
          <mxGeometry width="290" height="35" as="geometry">
            <mxRectangle width="290" height="35" as="alternateBounds" />
          </mxGeometry>
        </mxCell>
        <mxCell id="x9qlODBB4SoJiExAGuNC-57" value="" style="shape=tableRow;horizontal=0;startSize=0;swimlaneHead=0;swimlaneBody=0;strokeColor=inherit;top=0;left=0;bottom=0;right=0;collapsible=0;dropTarget=0;fillColor=none;points=[[0,0.5],[1,0.5]];portConstraint=eastwest;" vertex="1" parent="x9qlODBB4SoJiExAGuNC-44">
          <mxGeometry y="137" width="290" height="36" as="geometry" />
        </mxCell>
        <mxCell id="x9qlODBB4SoJiExAGuNC-58" value="" style="shape=partialRectangle;html=1;whiteSpace=wrap;connectable=0;strokeColor=inherit;overflow=hidden;fillColor=none;top=0;left=0;bottom=0;right=0;pointerEvents=1;" vertex="1" parent="x9qlODBB4SoJiExAGuNC-57">
          <mxGeometry height="36" as="geometry">
            <mxRectangle height="36" as="alternateBounds" />
          </mxGeometry>
        </mxCell>
        <mxCell id="x9qlODBB4SoJiExAGuNC-59" value="character" style="shape=partialRectangle;html=1;whiteSpace=wrap;connectable=0;strokeColor=inherit;overflow=hidden;fillColor=none;top=0;left=0;bottom=0;right=0;pointerEvents=1;" vertex="1" parent="x9qlODBB4SoJiExAGuNC-57">
          <mxGeometry width="290" height="36" as="geometry">
            <mxRectangle width="290" height="36" as="alternateBounds" />
          </mxGeometry>
        </mxCell>
        <mxCell id="x9qlODBB4SoJiExAGuNC-60" value="" style="shape=tableRow;horizontal=0;startSize=0;swimlaneHead=0;swimlaneBody=0;strokeColor=inherit;top=0;left=0;bottom=0;right=0;collapsible=0;dropTarget=0;fillColor=none;points=[[0,0.5],[1,0.5]];portConstraint=eastwest;" vertex="1" parent="x9qlODBB4SoJiExAGuNC-44">
          <mxGeometry y="173" width="290" height="36" as="geometry" />
        </mxCell>
        <mxCell id="x9qlODBB4SoJiExAGuNC-61" value="" style="shape=partialRectangle;html=1;whiteSpace=wrap;connectable=0;strokeColor=inherit;overflow=hidden;fillColor=none;top=0;left=0;bottom=0;right=0;pointerEvents=1;" vertex="1" parent="x9qlODBB4SoJiExAGuNC-60">
          <mxGeometry height="36" as="geometry">
            <mxRectangle height="36" as="alternateBounds" />
          </mxGeometry>
        </mxCell>
        <mxCell id="x9qlODBB4SoJiExAGuNC-62" value="name" style="shape=partialRectangle;html=1;whiteSpace=wrap;connectable=0;strokeColor=inherit;overflow=hidden;fillColor=none;top=0;left=0;bottom=0;right=0;pointerEvents=1;" vertex="1" parent="x9qlODBB4SoJiExAGuNC-60">
          <mxGeometry width="290" height="36" as="geometry">
            <mxRectangle width="290" height="36" as="alternateBounds" />
          </mxGeometry>
        </mxCell>
        <mxCell id="x9qlODBB4SoJiExAGuNC-63" value="" style="shape=tableRow;horizontal=0;startSize=0;swimlaneHead=0;swimlaneBody=0;strokeColor=inherit;top=0;left=0;bottom=0;right=0;collapsible=0;dropTarget=0;fillColor=none;points=[[0,0.5],[1,0.5]];portConstraint=eastwest;" vertex="1" parent="x9qlODBB4SoJiExAGuNC-44">
          <mxGeometry y="209" width="290" height="36" as="geometry" />
        </mxCell>
        <mxCell id="x9qlODBB4SoJiExAGuNC-64" value="" style="shape=partialRectangle;html=1;whiteSpace=wrap;connectable=0;strokeColor=inherit;overflow=hidden;fillColor=none;top=0;left=0;bottom=0;right=0;pointerEvents=1;" vertex="1" parent="x9qlODBB4SoJiExAGuNC-63">
          <mxGeometry height="36" as="geometry">
            <mxRectangle height="36" as="alternateBounds" />
          </mxGeometry>
        </mxCell>
        <mxCell id="x9qlODBB4SoJiExAGuNC-65" value="gender" style="shape=partialRectangle;html=1;whiteSpace=wrap;connectable=0;strokeColor=inherit;overflow=hidden;fillColor=none;top=0;left=0;bottom=0;right=0;pointerEvents=1;" vertex="1" parent="x9qlODBB4SoJiExAGuNC-63">
          <mxGeometry width="290" height="36" as="geometry">
            <mxRectangle width="290" height="36" as="alternateBounds" />
          </mxGeometry>
        </mxCell>
        <mxCell id="x9qlODBB4SoJiExAGuNC-66" value="movie_crew" style="shape=table;startSize=40;container=1;collapsible=0;childLayout=tableLayout;fontStyle=1;fontSize=14;" vertex="1" parent="1">
          <mxGeometry x="580" y="400" width="240" height="280" as="geometry" />
        </mxCell>
        <mxCell id="x9qlODBB4SoJiExAGuNC-70" value="" style="shape=tableRow;horizontal=0;startSize=0;swimlaneHead=0;swimlaneBody=0;strokeColor=inherit;top=0;left=0;bottom=0;right=0;collapsible=0;dropTarget=0;fillColor=none;points=[[0,0.5],[1,0.5]];portConstraint=eastwest;" vertex="1" parent="x9qlODBB4SoJiExAGuNC-66">
          <mxGeometry y="40" width="240" height="35" as="geometry" />
        </mxCell>
        <mxCell id="x9qlODBB4SoJiExAGuNC-71" value="" style="shape=partialRectangle;html=1;whiteSpace=wrap;connectable=0;strokeColor=inherit;overflow=hidden;fillColor=none;top=0;left=0;bottom=0;right=0;pointerEvents=1;" vertex="1" parent="x9qlODBB4SoJiExAGuNC-70">
          <mxGeometry height="35" as="geometry">
            <mxRectangle height="35" as="alternateBounds" />
          </mxGeometry>
        </mxCell>
        <mxCell id="x9qlODBB4SoJiExAGuNC-72" value="&lt;u&gt;cid&lt;span style=&quot;white-space: pre;&quot;&gt;&#x9;&lt;/span&gt;&lt;/u&gt;" style="shape=partialRectangle;html=1;whiteSpace=wrap;connectable=0;strokeColor=inherit;overflow=hidden;fillColor=none;top=0;left=0;bottom=0;right=0;pointerEvents=1;" vertex="1" parent="x9qlODBB4SoJiExAGuNC-70">
          <mxGeometry width="240" height="35" as="geometry">
            <mxRectangle width="240" height="35" as="alternateBounds" />
          </mxGeometry>
        </mxCell>
        <mxCell id="x9qlODBB4SoJiExAGuNC-73" value="" style="shape=tableRow;horizontal=0;startSize=0;swimlaneHead=0;swimlaneBody=0;strokeColor=inherit;top=0;left=0;bottom=0;right=0;collapsible=0;dropTarget=0;fillColor=none;points=[[0,0.5],[1,0.5]];portConstraint=eastwest;" vertex="1" parent="x9qlODBB4SoJiExAGuNC-66">
          <mxGeometry y="75" width="240" height="33" as="geometry" />
        </mxCell>
        <mxCell id="x9qlODBB4SoJiExAGuNC-74" value="" style="shape=partialRectangle;html=1;whiteSpace=wrap;connectable=0;strokeColor=inherit;overflow=hidden;fillColor=none;top=0;left=0;bottom=0;right=0;pointerEvents=1;" vertex="1" parent="x9qlODBB4SoJiExAGuNC-73">
          <mxGeometry height="33" as="geometry">
            <mxRectangle height="33" as="alternateBounds" />
          </mxGeometry>
        </mxCell>
        <mxCell id="x9qlODBB4SoJiExAGuNC-75" value="movie_id" style="shape=partialRectangle;html=1;whiteSpace=wrap;connectable=0;strokeColor=inherit;overflow=hidden;fillColor=none;top=0;left=0;bottom=0;right=0;pointerEvents=1;" vertex="1" parent="x9qlODBB4SoJiExAGuNC-73">
          <mxGeometry width="240" height="33" as="geometry">
            <mxRectangle width="240" height="33" as="alternateBounds" />
          </mxGeometry>
        </mxCell>
        <mxCell id="x9qlODBB4SoJiExAGuNC-76" value="" style="shape=tableRow;horizontal=0;startSize=0;swimlaneHead=0;swimlaneBody=0;strokeColor=inherit;top=0;left=0;bottom=0;right=0;collapsible=0;dropTarget=0;fillColor=none;points=[[0,0.5],[1,0.5]];portConstraint=eastwest;" vertex="1" parent="x9qlODBB4SoJiExAGuNC-66">
          <mxGeometry y="108" width="240" height="35" as="geometry" />
        </mxCell>
        <mxCell id="x9qlODBB4SoJiExAGuNC-77" value="" style="shape=partialRectangle;html=1;whiteSpace=wrap;connectable=0;strokeColor=inherit;overflow=hidden;fillColor=none;top=0;left=0;bottom=0;right=0;pointerEvents=1;" vertex="1" parent="x9qlODBB4SoJiExAGuNC-76">
          <mxGeometry height="35" as="geometry">
            <mxRectangle height="35" as="alternateBounds" />
          </mxGeometry>
        </mxCell>
        <mxCell id="x9qlODBB4SoJiExAGuNC-78" value="person_id" style="shape=partialRectangle;html=1;whiteSpace=wrap;connectable=0;strokeColor=inherit;overflow=hidden;fillColor=none;top=0;left=0;bottom=0;right=0;pointerEvents=1;" vertex="1" parent="x9qlODBB4SoJiExAGuNC-76">
          <mxGeometry width="240" height="35" as="geometry">
            <mxRectangle width="240" height="35" as="alternateBounds" />
          </mxGeometry>
        </mxCell>
        <mxCell id="x9qlODBB4SoJiExAGuNC-79" value="" style="shape=tableRow;horizontal=0;startSize=0;swimlaneHead=0;swimlaneBody=0;strokeColor=inherit;top=0;left=0;bottom=0;right=0;collapsible=0;dropTarget=0;fillColor=none;points=[[0,0.5],[1,0.5]];portConstraint=eastwest;" vertex="1" parent="x9qlODBB4SoJiExAGuNC-66">
          <mxGeometry y="143" width="240" height="34" as="geometry" />
        </mxCell>
        <mxCell id="x9qlODBB4SoJiExAGuNC-80" value="" style="shape=partialRectangle;html=1;whiteSpace=wrap;connectable=0;strokeColor=inherit;overflow=hidden;fillColor=none;top=0;left=0;bottom=0;right=0;pointerEvents=1;" vertex="1" parent="x9qlODBB4SoJiExAGuNC-79">
          <mxGeometry height="34" as="geometry">
            <mxRectangle height="34" as="alternateBounds" />
          </mxGeometry>
        </mxCell>
        <mxCell id="x9qlODBB4SoJiExAGuNC-81" value="department" style="shape=partialRectangle;html=1;whiteSpace=wrap;connectable=0;strokeColor=inherit;overflow=hidden;fillColor=none;top=0;left=0;bottom=0;right=0;pointerEvents=1;" vertex="1" parent="x9qlODBB4SoJiExAGuNC-79">
          <mxGeometry width="240" height="34" as="geometry">
            <mxRectangle width="240" height="34" as="alternateBounds" />
          </mxGeometry>
        </mxCell>
        <mxCell id="x9qlODBB4SoJiExAGuNC-82" value="" style="shape=tableRow;horizontal=0;startSize=0;swimlaneHead=0;swimlaneBody=0;strokeColor=inherit;top=0;left=0;bottom=0;right=0;collapsible=0;dropTarget=0;fillColor=none;points=[[0,0.5],[1,0.5]];portConstraint=eastwest;" vertex="1" parent="x9qlODBB4SoJiExAGuNC-66">
          <mxGeometry y="177" width="240" height="35" as="geometry" />
        </mxCell>
        <mxCell id="x9qlODBB4SoJiExAGuNC-83" value="" style="shape=partialRectangle;html=1;whiteSpace=wrap;connectable=0;strokeColor=inherit;overflow=hidden;fillColor=none;top=0;left=0;bottom=0;right=0;pointerEvents=1;" vertex="1" parent="x9qlODBB4SoJiExAGuNC-82">
          <mxGeometry height="35" as="geometry">
            <mxRectangle height="35" as="alternateBounds" />
          </mxGeometry>
        </mxCell>
        <mxCell id="x9qlODBB4SoJiExAGuNC-84" value="job" style="shape=partialRectangle;html=1;whiteSpace=wrap;connectable=0;strokeColor=inherit;overflow=hidden;fillColor=none;top=0;left=0;bottom=0;right=0;pointerEvents=1;" vertex="1" parent="x9qlODBB4SoJiExAGuNC-82">
          <mxGeometry width="240" height="35" as="geometry">
            <mxRectangle width="240" height="35" as="alternateBounds" />
          </mxGeometry>
        </mxCell>
        <mxCell id="x9qlODBB4SoJiExAGuNC-85" value="" style="shape=tableRow;horizontal=0;startSize=0;swimlaneHead=0;swimlaneBody=0;strokeColor=inherit;top=0;left=0;bottom=0;right=0;collapsible=0;dropTarget=0;fillColor=none;points=[[0,0.5],[1,0.5]];portConstraint=eastwest;" vertex="1" parent="x9qlODBB4SoJiExAGuNC-66">
          <mxGeometry y="212" width="240" height="33" as="geometry" />
        </mxCell>
        <mxCell id="x9qlODBB4SoJiExAGuNC-86" value="" style="shape=partialRectangle;html=1;whiteSpace=wrap;connectable=0;strokeColor=inherit;overflow=hidden;fillColor=none;top=0;left=0;bottom=0;right=0;pointerEvents=1;" vertex="1" parent="x9qlODBB4SoJiExAGuNC-85">
          <mxGeometry height="33" as="geometry">
            <mxRectangle height="33" as="alternateBounds" />
          </mxGeometry>
        </mxCell>
        <mxCell id="x9qlODBB4SoJiExAGuNC-87" value="name" style="shape=partialRectangle;html=1;whiteSpace=wrap;connectable=0;strokeColor=inherit;overflow=hidden;fillColor=none;top=0;left=0;bottom=0;right=0;pointerEvents=1;" vertex="1" parent="x9qlODBB4SoJiExAGuNC-85">
          <mxGeometry width="240" height="33" as="geometry">
            <mxRectangle width="240" height="33" as="alternateBounds" />
          </mxGeometry>
        </mxCell>
        <mxCell id="x9qlODBB4SoJiExAGuNC-88" value="" style="shape=tableRow;horizontal=0;startSize=0;swimlaneHead=0;swimlaneBody=0;strokeColor=inherit;top=0;left=0;bottom=0;right=0;collapsible=0;dropTarget=0;fillColor=none;points=[[0,0.5],[1,0.5]];portConstraint=eastwest;" vertex="1" parent="x9qlODBB4SoJiExAGuNC-66">
          <mxGeometry y="245" width="240" height="35" as="geometry" />
        </mxCell>
        <mxCell id="x9qlODBB4SoJiExAGuNC-89" value="" style="shape=partialRectangle;html=1;whiteSpace=wrap;connectable=0;strokeColor=inherit;overflow=hidden;fillColor=none;top=0;left=0;bottom=0;right=0;pointerEvents=1;" vertex="1" parent="x9qlODBB4SoJiExAGuNC-88">
          <mxGeometry height="35" as="geometry">
            <mxRectangle height="35" as="alternateBounds" />
          </mxGeometry>
        </mxCell>
        <mxCell id="x9qlODBB4SoJiExAGuNC-90" value="gender" style="shape=partialRectangle;html=1;whiteSpace=wrap;connectable=0;strokeColor=inherit;overflow=hidden;fillColor=none;top=0;left=0;bottom=0;right=0;pointerEvents=1;" vertex="1" parent="x9qlODBB4SoJiExAGuNC-88">
          <mxGeometry width="240" height="35" as="geometry">
            <mxRectangle width="240" height="35" as="alternateBounds" />
          </mxGeometry>
        </mxCell>
        <mxCell id="x9qlODBB4SoJiExAGuNC-91" value="keyword" style="shape=table;startSize=30;container=1;collapsible=0;childLayout=tableLayout;fontStyle=1;fontSize=14;" vertex="1" parent="1">
          <mxGeometry x="20" y="770" width="100" height="110" as="geometry" />
        </mxCell>
        <mxCell id="x9qlODBB4SoJiExAGuNC-92" value="" style="shape=tableRow;horizontal=0;startSize=0;swimlaneHead=0;swimlaneBody=0;strokeColor=inherit;top=0;left=0;bottom=0;right=0;collapsible=0;dropTarget=0;fillColor=none;points=[[0,0.5],[1,0.5]];portConstraint=eastwest;" vertex="1" parent="x9qlODBB4SoJiExAGuNC-91">
          <mxGeometry y="30" width="100" height="40" as="geometry" />
        </mxCell>
        <mxCell id="x9qlODBB4SoJiExAGuNC-93" value="&lt;u&gt;id&lt;/u&gt;" style="shape=partialRectangle;html=1;whiteSpace=wrap;connectable=0;strokeColor=inherit;overflow=hidden;fillColor=none;top=0;left=0;bottom=0;right=0;pointerEvents=1;" vertex="1" parent="x9qlODBB4SoJiExAGuNC-92">
          <mxGeometry width="100" height="40" as="geometry">
            <mxRectangle width="100" height="40" as="alternateBounds" />
          </mxGeometry>
        </mxCell>
        <mxCell id="x9qlODBB4SoJiExAGuNC-94" value="" style="shape=tableRow;horizontal=0;startSize=0;swimlaneHead=0;swimlaneBody=0;strokeColor=inherit;top=0;left=0;bottom=0;right=0;collapsible=0;dropTarget=0;fillColor=none;points=[[0,0.5],[1,0.5]];portConstraint=eastwest;" vertex="1" parent="x9qlODBB4SoJiExAGuNC-91">
          <mxGeometry y="70" width="100" height="40" as="geometry" />
        </mxCell>
        <mxCell id="x9qlODBB4SoJiExAGuNC-95" value="name" style="shape=partialRectangle;html=1;whiteSpace=wrap;connectable=0;strokeColor=inherit;overflow=hidden;fillColor=none;top=0;left=0;bottom=0;right=0;pointerEvents=1;" vertex="1" parent="x9qlODBB4SoJiExAGuNC-94">
          <mxGeometry width="100" height="40" as="geometry">
            <mxRectangle width="100" height="40" as="alternateBounds" />
          </mxGeometry>
        </mxCell>
        <mxCell id="x9qlODBB4SoJiExAGuNC-96" value="genre" style="shape=table;startSize=30;container=1;collapsible=0;childLayout=tableLayout;fontSize=14;fontStyle=1" vertex="1" parent="1">
          <mxGeometry x="430" y="770" width="60" height="110" as="geometry" />
        </mxCell>
        <mxCell id="x9qlODBB4SoJiExAGuNC-97" value="" style="shape=tableRow;horizontal=0;startSize=0;swimlaneHead=0;swimlaneBody=0;strokeColor=inherit;top=0;left=0;bottom=0;right=0;collapsible=0;dropTarget=0;fillColor=none;points=[[0,0.5],[1,0.5]];portConstraint=eastwest;" vertex="1" parent="x9qlODBB4SoJiExAGuNC-96">
          <mxGeometry y="30" width="60" height="40" as="geometry" />
        </mxCell>
        <mxCell id="x9qlODBB4SoJiExAGuNC-98" value="&lt;u&gt;id&lt;/u&gt;" style="shape=partialRectangle;html=1;whiteSpace=wrap;connectable=0;strokeColor=inherit;overflow=hidden;fillColor=none;top=0;left=0;bottom=0;right=0;pointerEvents=1;" vertex="1" parent="x9qlODBB4SoJiExAGuNC-97">
          <mxGeometry width="60" height="40" as="geometry">
            <mxRectangle width="60" height="40" as="alternateBounds" />
          </mxGeometry>
        </mxCell>
        <mxCell id="x9qlODBB4SoJiExAGuNC-99" value="" style="shape=tableRow;horizontal=0;startSize=0;swimlaneHead=0;swimlaneBody=0;strokeColor=inherit;top=0;left=0;bottom=0;right=0;collapsible=0;dropTarget=0;fillColor=none;points=[[0,0.5],[1,0.5]];portConstraint=eastwest;" vertex="1" parent="x9qlODBB4SoJiExAGuNC-96">
          <mxGeometry y="70" width="60" height="40" as="geometry" />
        </mxCell>
        <mxCell id="x9qlODBB4SoJiExAGuNC-100" value="name" style="shape=partialRectangle;html=1;whiteSpace=wrap;connectable=0;strokeColor=inherit;overflow=hidden;fillColor=none;top=0;left=0;bottom=0;right=0;pointerEvents=1;" vertex="1" parent="x9qlODBB4SoJiExAGuNC-99">
          <mxGeometry width="60" height="40" as="geometry">
            <mxRectangle width="60" height="40" as="alternateBounds" />
          </mxGeometry>
        </mxCell>
        <mxCell id="x9qlODBB4SoJiExAGuNC-101" value="productioncompany" style="shape=table;startSize=30;container=1;collapsible=0;childLayout=tableLayout;fontSize=14;fontStyle=1" vertex="1" parent="1">
          <mxGeometry x="600" y="770" width="160" height="110" as="geometry" />
        </mxCell>
        <mxCell id="x9qlODBB4SoJiExAGuNC-102" value="" style="shape=tableRow;horizontal=0;startSize=0;swimlaneHead=0;swimlaneBody=0;strokeColor=inherit;top=0;left=0;bottom=0;right=0;collapsible=0;dropTarget=0;fillColor=none;points=[[0,0.5],[1,0.5]];portConstraint=eastwest;" vertex="1" parent="x9qlODBB4SoJiExAGuNC-101">
          <mxGeometry y="30" width="160" height="40" as="geometry" />
        </mxCell>
        <mxCell id="x9qlODBB4SoJiExAGuNC-103" value="&lt;u&gt;id&lt;/u&gt;" style="shape=partialRectangle;html=1;whiteSpace=wrap;connectable=0;strokeColor=inherit;overflow=hidden;fillColor=none;top=0;left=0;bottom=0;right=0;pointerEvents=1;" vertex="1" parent="x9qlODBB4SoJiExAGuNC-102">
          <mxGeometry width="160" height="40" as="geometry">
            <mxRectangle width="160" height="40" as="alternateBounds" />
          </mxGeometry>
        </mxCell>
        <mxCell id="x9qlODBB4SoJiExAGuNC-104" value="" style="shape=tableRow;horizontal=0;startSize=0;swimlaneHead=0;swimlaneBody=0;strokeColor=inherit;top=0;left=0;bottom=0;right=0;collapsible=0;dropTarget=0;fillColor=none;points=[[0,0.5],[1,0.5]];portConstraint=eastwest;" vertex="1" parent="x9qlODBB4SoJiExAGuNC-101">
          <mxGeometry y="70" width="160" height="40" as="geometry" />
        </mxCell>
        <mxCell id="x9qlODBB4SoJiExAGuNC-105" value="name" style="shape=partialRectangle;html=1;whiteSpace=wrap;connectable=0;strokeColor=inherit;overflow=hidden;fillColor=none;top=0;left=0;bottom=0;right=0;pointerEvents=1;" vertex="1" parent="x9qlODBB4SoJiExAGuNC-104">
          <mxGeometry width="160" height="40" as="geometry">
            <mxRectangle width="160" height="40" as="alternateBounds" />
          </mxGeometry>
        </mxCell>
        <mxCell id="x9qlODBB4SoJiExAGuNC-106" value="collection" style="shape=table;startSize=30;container=1;collapsible=0;childLayout=tableLayout;fontStyle=1;fontSize=14;" vertex="1" parent="1">
          <mxGeometry x="260" y="770" width="100" height="110" as="geometry" />
        </mxCell>
        <mxCell id="x9qlODBB4SoJiExAGuNC-107" value="" style="shape=tableRow;horizontal=0;startSize=0;swimlaneHead=0;swimlaneBody=0;strokeColor=inherit;top=0;left=0;bottom=0;right=0;collapsible=0;dropTarget=0;fillColor=none;points=[[0,0.5],[1,0.5]];portConstraint=eastwest;" vertex="1" parent="x9qlODBB4SoJiExAGuNC-106">
          <mxGeometry y="30" width="100" height="40" as="geometry" />
        </mxCell>
        <mxCell id="x9qlODBB4SoJiExAGuNC-108" value="&lt;u&gt;id&lt;/u&gt;" style="shape=partialRectangle;html=1;whiteSpace=wrap;connectable=0;strokeColor=inherit;overflow=hidden;fillColor=none;top=0;left=0;bottom=0;right=0;pointerEvents=1;" vertex="1" parent="x9qlODBB4SoJiExAGuNC-107">
          <mxGeometry width="100" height="40" as="geometry">
            <mxRectangle width="100" height="40" as="alternateBounds" />
          </mxGeometry>
        </mxCell>
        <mxCell id="x9qlODBB4SoJiExAGuNC-109" value="" style="shape=tableRow;horizontal=0;startSize=0;swimlaneHead=0;swimlaneBody=0;strokeColor=inherit;top=0;left=0;bottom=0;right=0;collapsible=0;dropTarget=0;fillColor=none;points=[[0,0.5],[1,0.5]];portConstraint=eastwest;" vertex="1" parent="x9qlODBB4SoJiExAGuNC-106">
          <mxGeometry y="70" width="100" height="40" as="geometry" />
        </mxCell>
        <mxCell id="x9qlODBB4SoJiExAGuNC-110" value="name" style="shape=partialRectangle;html=1;whiteSpace=wrap;connectable=0;strokeColor=inherit;overflow=hidden;fillColor=none;top=0;left=0;bottom=0;right=0;pointerEvents=1;" vertex="1" parent="x9qlODBB4SoJiExAGuNC-109">
          <mxGeometry width="100" height="40" as="geometry">
            <mxRectangle width="100" height="40" as="alternateBounds" />
          </mxGeometry>
        </mxCell>
        <mxCell id="x9qlODBB4SoJiExAGuNC-114" value="" style="edgeStyle=entityRelationEdgeStyle;fontSize=12;html=1;endArrow=ERoneToMany;rounded=0;entryX=0.007;entryY=0.053;entryDx=0;entryDy=0;entryPerimeter=0;" edge="1" parent="1" target="x9qlODBB4SoJiExAGuNC-44">
          <mxGeometry width="100" height="100" relative="1" as="geometry">
            <mxPoint x="372.03" y="220" as="sourcePoint" />
            <mxPoint x="500" y="120" as="targetPoint" />
            <Array as="points">
              <mxPoint x="462.03" y="160" />
            </Array>
          </mxGeometry>
        </mxCell>
        <mxCell id="x9qlODBB4SoJiExAGuNC-122" value="hasCast" style="edgeLabel;html=1;align=center;verticalAlign=middle;resizable=0;points=[];" vertex="1" connectable="0" parent="x9qlODBB4SoJiExAGuNC-114">
          <mxGeometry x="0.0102" y="1" relative="1" as="geometry">
            <mxPoint as="offset" />
          </mxGeometry>
        </mxCell>
        <mxCell id="x9qlODBB4SoJiExAGuNC-115" value="" style="edgeStyle=entityRelationEdgeStyle;fontSize=12;html=1;endArrow=ERoneToMany;rounded=0;" edge="1" parent="1" target="x9qlODBB4SoJiExAGuNC-67">
          <mxGeometry width="100" height="100" relative="1" as="geometry">
            <mxPoint x="390" y="560" as="sourcePoint" />
            <mxPoint x="490" y="460" as="targetPoint" />
          </mxGeometry>
        </mxCell>
        <mxCell id="x9qlODBB4SoJiExAGuNC-116" value="" style="edgeStyle=entityRelationEdgeStyle;fontSize=12;html=1;endArrow=ERmany;startArrow=ERmany;rounded=0;exitX=0.848;exitY=1.025;exitDx=0;exitDy=0;exitPerimeter=0;entryX=0.75;entryY=0;entryDx=0;entryDy=0;" edge="1" parent="1" source="x9qlODBB4SoJiExAGuNC-41" target="x9qlODBB4SoJiExAGuNC-91">
          <mxGeometry width="100" height="100" relative="1" as="geometry">
            <mxPoint x="370" y="730" as="sourcePoint" />
            <mxPoint x="480" y="710" as="targetPoint" />
            <Array as="points">
              <mxPoint x="240" y="690" />
            </Array>
          </mxGeometry>
        </mxCell>
        <mxCell id="x9qlODBB4SoJiExAGuNC-124" value="hasKeyword" style="edgeLabel;html=1;align=center;verticalAlign=middle;resizable=0;points=[];" vertex="1" connectable="0" parent="x9qlODBB4SoJiExAGuNC-116">
          <mxGeometry x="-0.0056" relative="1" as="geometry">
            <mxPoint x="-23" y="10" as="offset" />
          </mxGeometry>
        </mxCell>
        <mxCell id="x9qlODBB4SoJiExAGuNC-117" value="" style="edgeStyle=entityRelationEdgeStyle;fontSize=12;html=1;endArrow=ERmany;startArrow=ERmany;rounded=0;entryX=0.985;entryY=1.1;entryDx=0;entryDy=0;entryPerimeter=0;exitX=0.5;exitY=0;exitDx=0;exitDy=0;" edge="1" parent="1" source="x9qlODBB4SoJiExAGuNC-96" target="x9qlODBB4SoJiExAGuNC-41">
          <mxGeometry width="100" height="100" relative="1" as="geometry">
            <mxPoint x="310" y="780" as="sourcePoint" />
            <mxPoint x="410" y="680" as="targetPoint" />
          </mxGeometry>
        </mxCell>
        <mxCell id="x9qlODBB4SoJiExAGuNC-125" value="hasGenre" style="edgeLabel;html=1;align=center;verticalAlign=middle;resizable=0;points=[];" vertex="1" connectable="0" parent="x9qlODBB4SoJiExAGuNC-117">
          <mxGeometry x="0.0004" y="2" relative="1" as="geometry">
            <mxPoint x="1" as="offset" />
          </mxGeometry>
        </mxCell>
        <mxCell id="x9qlODBB4SoJiExAGuNC-118" value="" style="edgeStyle=entityRelationEdgeStyle;fontSize=12;html=1;endArrow=ERmany;startArrow=ERmany;rounded=0;entryX=0.331;entryY=0.018;entryDx=0;entryDy=0;entryPerimeter=0;" edge="1" parent="1" source="x9qlODBB4SoJiExAGuNC-38" target="x9qlODBB4SoJiExAGuNC-101">
          <mxGeometry width="100" height="100" relative="1" as="geometry">
            <mxPoint x="397" y="590" as="sourcePoint" />
            <mxPoint x="610" y="831" as="targetPoint" />
          </mxGeometry>
        </mxCell>
        <mxCell id="x9qlODBB4SoJiExAGuNC-126" value="hasProductionCompany" style="edgeLabel;html=1;align=center;verticalAlign=middle;resizable=0;points=[];" vertex="1" connectable="0" parent="x9qlODBB4SoJiExAGuNC-118">
          <mxGeometry x="0.067" y="-4" relative="1" as="geometry">
            <mxPoint x="3" y="16" as="offset" />
          </mxGeometry>
        </mxCell>
        <mxCell id="x9qlODBB4SoJiExAGuNC-119" value="" style="edgeStyle=entityRelationEdgeStyle;fontSize=12;html=1;endArrow=ERoneToMany;rounded=0;entryX=0.75;entryY=0;entryDx=0;entryDy=0;exitX=0.485;exitY=1.05;exitDx=0;exitDy=0;exitPerimeter=0;" edge="1" parent="1" source="x9qlODBB4SoJiExAGuNC-41" target="x9qlODBB4SoJiExAGuNC-106">
          <mxGeometry width="100" height="100" relative="1" as="geometry">
            <mxPoint x="250" y="860" as="sourcePoint" />
            <mxPoint x="350" y="760" as="targetPoint" />
            <Array as="points">
              <mxPoint x="40" y="840" />
              <mxPoint y="840" />
            </Array>
          </mxGeometry>
        </mxCell>
        <mxCell id="x9qlODBB4SoJiExAGuNC-127" value="belongsToCollection" style="edgeLabel;html=1;align=center;verticalAlign=middle;resizable=0;points=[];" vertex="1" connectable="0" parent="x9qlODBB4SoJiExAGuNC-119">
          <mxGeometry x="0.0823" y="-1" relative="1" as="geometry">
            <mxPoint x="10" as="offset" />
          </mxGeometry>
        </mxCell>
        <mxCell id="x9qlODBB4SoJiExAGuNC-120" value="" style="edgeStyle=entityRelationEdgeStyle;fontSize=12;html=1;endArrow=ERoneToMany;rounded=0;entryX=-0.004;entryY=0.046;entryDx=0;entryDy=0;entryPerimeter=0;" edge="1" parent="1" target="x9qlODBB4SoJiExAGuNC-66">
          <mxGeometry width="100" height="100" relative="1" as="geometry">
            <mxPoint x="390" y="440" as="sourcePoint" />
            <mxPoint x="490" y="340" as="targetPoint" />
          </mxGeometry>
        </mxCell>
        <mxCell id="x9qlODBB4SoJiExAGuNC-123" value="hasCrew" style="edgeLabel;html=1;align=center;verticalAlign=middle;resizable=0;points=[];" vertex="1" connectable="0" parent="x9qlODBB4SoJiExAGuNC-120">
          <mxGeometry x="0.0794" relative="1" as="geometry">
            <mxPoint as="offset" />
          </mxGeometry>
        </mxCell>
      </root>
    </mxGraphModel>
  </diagram>
</mxfile>
